<svg  version="1.1" width="2000" height="1816" viewBox="0 0 2000 1816"><g transform="matrix(1,0,0,1,-1.187889432071529,-2.928675924131312)"><svg viewBox="0 0 273 248" data-background-color="#ffffff" preserveAspectRatio="xMidYMid meet" height="1816" width="2000"  ><g id="tight-bounds" transform="matrix(1,0,0,1,0.16214690747776217,0.40004866234332326)"><svg viewBox="0 0 272.6757061850445 247.2" height="247.2" width="272.6757061850445"><g><svg viewBox="0 0 395.52 358.56712491155747" height="247.2" width="272.6757061850445"><g transform="matrix(1,0,0,1,0,276.7447314287218)"><svg viewBox="0 0 395.52 81.82239348283564" height="81.82239348283564" width="395.52"><g id="textblocktransform"><svg viewBox="0 0 395.52 81.82239348283564" height="81.82239348283564" width="395.52" id="textblock"><g><svg viewBox="0 0 395.52 54.75079453857543" height="54.75079453857543" width="395.52"><g transform="matrix(1,0,0,1,0,0)"><svg width="395.52" viewBox="3.78 -33.48 303.91 42.08" height="54.75079453857543" data-palette-color="#000000"><path d="M15.65-10.63L15.65-10.63 6.48-10.63 6.48-14.08 15.55-14.08Q18.82-14.08 20.3-15.71 21.78-17.35 21.78-20.23L21.78-20.23 21.78-22.4Q21.78-25.33 20.31-26.93 18.85-28.53 15.6-28.53L15.6-28.53 6.45-28.53 6.45-31.95 15.68-31.95Q21.03-31.95 23.46-29.44 25.9-26.93 25.9-22.53L25.9-22.53 25.9-20.13Q25.9-15.68 23.44-13.15 20.98-10.63 15.65-10.63ZM7.88-11.2L7.88 0 3.78 0 3.78-31.95 7.85-31.95 7.85-13.05 7.88-11.2ZM35.17-14.93L35.17-14.93 34.25-18.05 35.25-18.1Q36.05-21.2 38-22.99 39.95-24.78 43.17-24.78L43.17-24.78Q43.97-24.78 44.61-24.65 45.25-24.53 45.75-24.35L45.75-24.35 46-20.43Q45.37-20.63 44.61-20.75 43.85-20.88 42.92-20.88L42.92-20.88Q40.17-20.88 38.14-19.35 36.1-17.82 35.17-14.93ZM35.37-16.9L35.37 0 31.32 0 31.32-24.4 35.27-24.4 35.07-17.2 35.37-16.9ZM59.67 0.63L59.67 0.63Q54.42 0.63 51.71-2.21 49-5.05 49-10.38L49-10.38 49-14.1Q49-19.4 51.72-22.23 54.45-25.05 59.67-25.05L59.67-25.05Q64.92-25.05 67.63-22.23 70.34-19.4 70.34-14.1L70.34-14.1 70.34-10.38Q70.34-5.05 67.63-2.21 64.92 0.63 59.67 0.63ZM59.67-2.68L59.67-2.68Q62.92-2.68 64.61-4.6 66.3-6.53 66.3-10.15L66.3-10.15 66.3-14.33Q66.3-17.93 64.61-19.84 62.92-21.75 59.67-21.75L59.67-21.75Q56.45-21.75 54.75-19.84 53.05-17.93 53.05-14.33L53.05-14.33 53.05-10.15Q53.05-6.53 54.75-4.6 56.45-2.68 59.67-2.68ZM86.87-29.15L78.09 0 73.89 0 83.89-31.95 90.44-31.95 100.47 0 96.27 0 87.49-29.15 86.87-29.15ZM94.44-12.88L94.44-9.43 79.89-9.43 79.89-12.88 94.44-12.88ZM114.39 0.55L114.39 0.55Q109.14 0.55 106.58-2.29 104.02-5.13 104.02-10.33L104.02-10.33 104.02-14.13Q104.02-19.35 106.59-22.16 109.17-24.98 114.39-24.98L114.39-24.98Q115.94-24.98 117.22-24.69 118.49-24.4 119.5-23.94 120.52-23.48 121.22-22.98L121.22-22.98 121.57-19.45Q120.39-20.35 118.78-20.98 117.17-21.6 114.99-21.6L114.99-21.6Q111.49-21.6 109.78-19.66 108.07-17.73 108.07-14.03L108.07-14.03 108.07-10.43Q108.07-6.8 109.78-4.85 111.49-2.9 114.99-2.9L114.99-2.9Q117.24-2.9 118.88-3.53 120.52-4.15 121.79-5.05L121.79-5.05 121.42-1.48Q120.32-0.73 118.54-0.09 116.77 0.55 114.39 0.55ZM135.56 0.5L135.56 0.5Q132.74 0.5 131.01-0.35 129.29-1.2 128.51-2.93 127.74-4.65 127.74-7.23L127.74-7.23 127.74-22.63 131.74-22.63 131.74-7.7Q131.74-5.3 132.84-4.16 133.94-3.03 136.54-3.03L136.54-3.03Q138.01-3.03 139.38-3.35 140.74-3.68 141.94-4.28L141.94-4.28 141.56-0.8Q140.39-0.2 138.81 0.15 137.24 0.5 135.56 0.5ZM141.69-24.05L141.31-20.8 123.74-20.8 123.74-24.05 141.69-24.05ZM131.81-31.03L131.64-23.65 127.76-23.65 127.74-30.5 131.81-31.03ZM150.59-24.4L150.59 0 146.54 0 146.54-24.4 150.59-24.4ZM148.56-28.4L148.56-28.4Q147.31-28.4 146.7-29.06 146.09-29.73 146.09-30.88L146.09-30.88 146.09-31Q146.09-32.18 146.7-32.83 147.31-33.48 148.56-33.48L148.56-33.48Q149.81-33.48 150.44-32.83 151.06-32.18 151.06-31L151.06-31 151.06-30.88Q151.06-29.7 150.44-29.05 149.81-28.4 148.56-28.4ZM159.28-24.4L166.03-2.78 166.63-2.78 173.38-24.4 177.58-24.4 169.66 0 163.01 0 155.08-24.4 159.28-24.4ZM192.23 0.55L192.23 0.55Q186.66 0.55 183.83-2.18 181-4.9 181-9.98L181-9.98 181-14.33Q181-19.48 183.63-22.26 186.25-25.05 191.31-25.05L191.31-25.05Q194.71-25.05 196.98-23.79 199.25-22.53 200.41-20.2 201.56-17.88 201.56-14.65L201.56-14.65 201.56-13.75Q201.56-12.95 201.49-12.15 201.43-11.35 201.33-10.58L201.33-10.58 197.61-10.58Q197.66-11.78 197.67-12.85 197.68-13.93 197.68-14.83L197.68-14.83Q197.68-17.05 196.97-18.59 196.25-20.13 194.84-20.94 193.43-21.75 191.31-21.75L191.31-21.75Q188.16-21.75 186.58-19.93 185-18.1 185-14.7L185-14.7 185-12.38 185.03-11.88 185.03-9.55Q185.03-8.03 185.48-6.8 185.93-5.58 186.89-4.69 187.86-3.8 189.34-3.34 190.83-2.88 192.88-2.88L192.88-2.88Q195.25-2.88 197.31-3.5 199.36-4.13 201.16-5.2L201.16-5.2 200.78-1.7Q199.16-0.68 197-0.06 194.86 0.55 192.23 0.55ZM200.48-13.63L200.48-10.58 183.13-10.58 183.13-13.63 200.48-13.63ZM229.28 0.6L229.28 0.6Q225.65 0.6 223.2-0.86 220.75-2.33 219.51-5.13 218.28-7.93 218.28-11.9L218.28-11.9 218.28-19.45Q218.28-25.75 221.51-29.14 224.75-32.52 231.03-32.52L231.03-32.52Q233.28-32.52 235.11-32.16 236.95-31.8 238.38-31.21 239.8-30.63 240.83-29.98L240.83-29.98 241.2-26.23Q239.48-27.33 237.14-28.15 234.8-28.98 231.73-28.98L231.73-28.98Q227.08-28.98 224.79-26.5 222.5-24.03 222.5-19.38L222.5-19.38 222.5-11.93Q222.5-7.63 224.51-5.29 226.53-2.95 230.55-2.95L230.55-2.95Q232.6-2.95 234.06-3.65 235.53-4.35 236.46-5.5 237.4-6.65 237.83-8.03L237.83-8.03 237.83-15.9 238.5-14.43 230.98-14.43 230.98-17.88 241.88-17.88 241.88-5.25 237.8-5.28Q237.4-3.73 236.43-2.38 235.45-1.03 233.7-0.21 231.95 0.6 229.28 0.6ZM241.88 0L237.83 0 238-6.6 241.88-6.6 241.88 0ZM250.47-24.4L257.12-3.78 259.45-3.78 257.32-2.85 264.62-24.4 268.8-24.4 257.32 8.6 253.22 8.6 257.07-2.55 258.85-1 254.25-1 246.27-24.4 250.47-24.4ZM307.69-15.73L307.69 0 303.64 0 303.64-15.28Q303.64-17.2 303.16-18.61 302.67-20.03 301.56-20.8 300.44-21.58 298.57-21.58L298.57-21.58Q296.8-21.58 295.5-20.85 294.19-20.13 293.39-18.91 292.6-17.7 292.27-16.15L292.27-16.15 291.64-19.03 292.14-19.03Q292.55-20.6 293.5-21.95 294.44-23.3 296.07-24.13 297.69-24.95 300.1-24.95L300.1-24.95Q302.82-24.95 304.48-23.88 306.14-22.8 306.92-20.74 307.69-18.68 307.69-15.73L307.69-15.73ZM277.22-18.3L277.22 0 273.17 0 273.17-24.4 277.22-24.4 277.05-18.55 277.22-18.3ZM292.44-15.85L292.44 0 288.42 0 288.42-15.28Q288.42-17.2 287.93-18.61 287.44-20.03 286.35-20.8 285.25-21.58 283.37-21.58L283.37-21.58Q281.57-21.58 280.27-20.85 278.97-20.13 278.17-18.89 277.37-17.65 277.05-16.07L277.05-16.07 276.3-18.95 277.19-18.95Q277.57-20.6 278.5-21.96 279.42-23.33 281.01-24.14 282.6-24.95 284.87-24.95L284.87-24.95Q288.25-24.95 290.01-23.2 291.77-21.45 292.22-18.1L292.22-18.1Q292.35-17.6 292.39-17.01 292.44-16.43 292.44-15.85L292.44-15.85Z" opacity="1" transform="matrix(1,0,0,1,0,0)" fill="#000000" class="wordmark-text-0" data-fill-palette-color="primary" id="text-0"></path></svg></g></svg></g><g transform="matrix(1,0,0,1,75.54432000000001,67.67614311006416)"><svg viewBox="0 0 244.43135999999996 14.146250372771474" height="14.146250372771474" width="244.43135999999996"><g transform="matrix(1,0,0,1,0,0)"><svg width="244.43135999999996" viewBox="1.63 -33.48 740.3100000000001 42.86" height="14.146250372771474" data-palette-color="#89939e"><path d="M14.83 0L8.22 0 1.63-31.95 5.88-31.95 10.53-8.08 11.4-3.48 11.85-3.48 12.7-8.08 17.38-31.13 23.5-31.13 28.18-8.08 29.03-3.48 29.48-3.48 30.38-8.08 35.02-31.95 39.23-31.95 32.65 0 26.1 0 22.4-18.38 20.65-27.7 20.25-27.7 18.48-18.38 14.83 0ZM64.55 0L60.5 0 60.5-15.18Q60.5-17.15 59.96-18.57 59.42-20 58.21-20.79 57-21.58 54.9-21.58L54.9-21.58Q52.97-21.58 51.57-20.85 50.17-20.13 49.31-18.89 48.45-17.65 48.1-16.07L48.1-16.07 47.2-18.95 48.25-18.95Q48.62-20.6 49.62-21.96 50.62-23.33 52.31-24.14 54-24.95 56.42-24.95L56.42-24.95Q59.32-24.95 61.11-23.85 62.9-22.75 63.72-20.69 64.55-18.63 64.55-15.63L64.55-15.63 64.55 0ZM48.22 0L44.17 0 44.17-33.13 48.2-33.13 48.2-25.18 48.07-18.18 48.22-17.85 48.22 0ZM81.07 0.55L81.07 0.55Q75.5 0.55 72.67-2.18 69.85-4.9 69.85-9.98L69.85-9.98 69.85-14.33Q69.85-19.48 72.47-22.26 75.1-25.05 80.15-25.05L80.15-25.05Q83.55-25.05 85.82-23.79 88.1-22.53 89.25-20.2 90.4-17.88 90.4-14.65L90.4-14.65 90.4-13.75Q90.4-12.95 90.33-12.15 90.27-11.35 90.17-10.58L90.17-10.58 86.45-10.58Q86.5-11.78 86.51-12.85 86.52-13.93 86.52-14.83L86.52-14.83Q86.52-17.05 85.81-18.59 85.1-20.13 83.68-20.94 82.27-21.75 80.15-21.75L80.15-21.75Q77-21.75 75.42-19.93 73.85-18.1 73.85-14.7L73.85-14.7 73.85-12.38 73.87-11.88 73.87-9.55Q73.87-8.03 74.32-6.8 74.77-5.58 75.73-4.69 76.7-3.8 78.18-3.34 79.67-2.88 81.72-2.88L81.72-2.88Q84.1-2.88 86.15-3.5 88.2-4.13 90-5.2L90-5.2 89.62-1.7Q88-0.68 85.85-0.06 83.7 0.55 81.07 0.55ZM89.32-10.58L71.97-10.58 71.97-13.63 89.32-13.63 89.32-10.58ZM99.64-14.93L99.64-14.93 98.72-18.05 99.72-18.1Q100.52-21.2 102.47-22.99 104.42-24.78 107.64-24.78L107.64-24.78Q108.44-24.78 109.08-24.65 109.72-24.53 110.22-24.35L110.22-24.35 110.47-20.43Q109.84-20.63 109.08-20.75 108.32-20.88 107.39-20.88L107.39-20.88Q104.64-20.88 102.61-19.35 100.57-17.82 99.64-14.93ZM99.84 0L95.79 0 95.79-24.4 99.74-24.4 99.54-17.2 99.84-16.9 99.84 0ZM124.04 0.55L124.04 0.55Q118.47 0.55 115.64-2.18 112.82-4.9 112.82-9.98L112.82-9.98 112.82-14.33Q112.82-19.48 115.44-22.26 118.07-25.05 123.12-25.05L123.12-25.05Q126.52-25.05 128.79-23.79 131.06-22.53 132.22-20.2 133.37-17.88 133.37-14.65L133.37-14.65 133.37-13.75Q133.37-12.95 133.3-12.15 133.24-11.35 133.14-10.58L133.14-10.58 129.42-10.58Q129.47-11.78 129.48-12.85 129.49-13.93 129.49-14.83L129.49-14.83Q129.49-17.05 128.78-18.59 128.06-20.13 126.65-20.94 125.24-21.75 123.12-21.75L123.12-21.75Q119.97-21.75 118.39-19.93 116.82-18.1 116.82-14.7L116.82-14.7 116.82-12.38 116.84-11.88 116.84-9.55Q116.84-8.03 117.29-6.8 117.74-5.58 118.7-4.69 119.67-3.8 121.15-3.34 122.64-2.88 124.69-2.88L124.69-2.88Q127.07-2.88 129.12-3.5 131.17-4.13 132.97-5.2L132.97-5.2 132.59-1.7Q130.97-0.68 128.81-0.06 126.67 0.55 124.04 0.55ZM132.29-10.58L114.94-10.58 114.94-13.63 132.29-13.63 132.29-10.58ZM164.86-9.6L161.29-9.6 150.31-31.95 154.69-31.95 160.56-19.73 162.91-14.43 163.24-14.43 165.59-19.73 171.44-31.95 175.84-31.95 164.86-9.6ZM165.11 0L161.04 0 161.04-13.48 165.11-13.48 165.11 0ZM185.86 0.63L185.86 0.63Q180.61 0.63 177.9-2.21 175.18-5.05 175.18-10.38L175.18-10.38 175.18-14.1Q175.18-19.4 177.91-22.23 180.63-25.05 185.86-25.05L185.86-25.05Q191.11-25.05 193.82-22.23 196.53-19.4 196.53-14.1L196.53-14.1 196.53-10.38Q196.53-5.05 193.82-2.21 191.11 0.63 185.86 0.63ZM185.86-2.68L185.86-2.68Q189.11-2.68 190.8-4.6 192.48-6.53 192.48-10.15L192.48-10.15 192.48-14.33Q192.48-17.93 190.8-19.84 189.11-21.75 185.86-21.75L185.86-21.75Q182.63-21.75 180.93-19.84 179.23-17.93 179.23-14.33L179.23-14.33 179.23-10.15Q179.23-6.53 180.93-4.6 182.63-2.68 185.86-2.68ZM201.86-24.4L205.88-24.4 205.88-9.22Q205.88-7.3 206.42-5.86 206.96-4.42 208.18-3.64 209.41-2.85 211.48-2.85L211.48-2.85Q213.43-2.85 214.83-3.56 216.23-4.28 217.12-5.53 218.01-6.78 218.33-8.35L218.33-8.35 219.06-5.48 218.18-5.48Q217.81-3.83 216.81-2.46 215.81-1.1 214.12-0.29 212.43 0.53 209.96 0.53L209.96 0.53Q207.08 0.53 205.29-0.56 203.51-1.65 202.68-3.74 201.86-5.83 201.86-8.78L201.86-8.78 201.86-24.4ZM218.16-24.4L222.21-24.4 222.21 0 218.16 0 218.33-5.85 218.16-6.1 218.16-24.4ZM232.65-14.93L232.65-14.93 231.73-18.05 232.73-18.1Q233.53-21.2 235.48-22.99 237.43-24.78 240.65-24.78L240.65-24.78Q241.45-24.78 242.09-24.65 242.73-24.53 243.23-24.35L243.23-24.35 243.48-20.43Q242.85-20.63 242.09-20.75 241.33-20.88 240.4-20.88L240.4-20.88Q237.65-20.88 235.62-19.35 233.58-17.82 232.65-14.93ZM232.85 0L228.8 0 228.8-24.4 232.75-24.4 232.55-17.2 232.85-16.9 232.85 0ZM265.97 0L261.82 0 261.82-31.95 265.97-31.95 265.97 0ZM280.65-13.38L264.17-13.38 264.17-16.85 280.65-16.85 280.65-13.38ZM281.02-28.48L263.02-28.48 263.02-31.95 281.02-31.95 281.02-28.48ZM290.35 0L286.3 0 286.3-24.4 290.35-24.4 290.35 0ZM288.32-28.4L288.32-28.4Q287.07-28.4 286.46-29.06 285.85-29.73 285.85-30.88L285.85-30.88 285.85-31Q285.85-32.18 286.46-32.83 287.07-33.48 288.32-33.48L288.32-33.48Q289.57-33.48 290.19-32.83 290.82-32.18 290.82-31L290.82-31 290.82-30.88Q290.82-29.7 290.19-29.05 289.57-28.4 288.32-28.4ZM305.92 0.5L305.92 0.5Q303.09 0.5 301.37-0.35 299.64-1.2 298.87-2.93 298.09-4.65 298.09-7.23L298.09-7.23 298.09-22.63 302.09-22.63 302.09-7.7Q302.09-5.3 303.19-4.16 304.29-3.03 306.89-3.03L306.89-3.03Q308.37-3.03 309.73-3.35 311.09-3.68 312.29-4.28L312.29-4.28 311.92-0.8Q310.74-0.2 309.17 0.15 307.59 0.5 305.92 0.5ZM311.67-20.8L294.09-20.8 294.09-24.05 312.04-24.05 311.67-20.8ZM301.99-23.65L298.12-23.65 298.09-30.5 302.17-31.03 301.99-23.65ZM337.19 0L333.14 0 333.14-15.18Q333.14-17.15 332.6-18.57 332.06-20 330.85-20.79 329.64-21.58 327.54-21.58L327.54-21.58Q325.62-21.58 324.2-20.85 322.79-20.13 321.91-18.89 321.04-17.65 320.69-16.07L320.69-16.07 319.96-18.95 320.84-18.95Q321.24-20.6 322.24-21.96 323.24-23.33 324.93-24.14 326.62-24.95 329.06-24.95L329.06-24.95Q331.96-24.95 333.75-23.85 335.54-22.75 336.37-20.69 337.19-18.63 337.19-15.63L337.19-15.63 337.19 0ZM320.87 0L316.81 0 316.81-24.4 320.87-24.4 320.69-18.55 320.87-18.32 320.87 0ZM353.71 0.55L353.71 0.55Q348.14 0.55 345.31-2.18 342.49-4.9 342.49-9.98L342.49-9.98 342.49-14.33Q342.49-19.48 345.11-22.26 347.74-25.05 352.79-25.05L352.79-25.05Q356.19-25.05 358.46-23.79 360.74-22.53 361.89-20.2 363.04-17.88 363.04-14.65L363.04-14.65 363.04-13.75Q363.04-12.95 362.97-12.15 362.91-11.35 362.81-10.58L362.81-10.58 359.09-10.58Q359.14-11.78 359.15-12.85 359.16-13.93 359.16-14.83L359.16-14.83Q359.16-17.05 358.45-18.59 357.74-20.13 356.32-20.94 354.91-21.75 352.79-21.75L352.79-21.75Q349.64-21.75 348.06-19.93 346.49-18.1 346.49-14.7L346.49-14.7 346.49-12.38 346.51-11.88 346.51-9.55Q346.51-8.03 346.96-6.8 347.41-5.58 348.37-4.69 349.34-3.8 350.82-3.34 352.31-2.88 354.36-2.88L354.36-2.88Q356.74-2.88 358.79-3.5 360.84-4.13 362.64-5.2L362.64-5.2 362.26-1.7Q360.64-0.68 358.49-0.06 356.34 0.55 353.71 0.55ZM361.96-10.58L344.61-10.58 344.61-13.63 361.96-13.63 361.96-10.58ZM376.13 0.55L376.13 0.55Q373.19 0.55 370.98-0.09 368.78-0.73 367.33-1.48L367.33-1.48 366.96-5.23Q368.78-4.28 370.97-3.58 373.16-2.88 375.94-2.88L375.94-2.88Q378.76-2.88 380.19-3.78 381.61-4.67 381.61-6.45L381.61-6.45 381.61-6.73Q381.61-7.88 381.07-8.63 380.53-9.38 379.13-9.95 377.73-10.53 375.16-11.1L375.16-11.1Q372.08-11.78 370.31-12.69 368.53-13.6 367.77-14.95 367.01-16.3 367.01-18.25L367.01-18.25 367.01-18.48Q367.01-21.68 369.23-23.33 371.46-24.98 375.94-24.98L375.94-24.98Q378.81-24.98 380.92-24.33 383.03-23.68 384.38-22.88L384.38-22.88 384.76-19.45Q383.13-20.4 381.03-21.03 378.94-21.65 376.31-21.65L376.31-21.65Q374.41-21.65 373.23-21.26 372.06-20.88 371.53-20.16 371.01-19.45 371.01-18.45L371.01-18.45 371.01-18.25Q371.01-17.15 371.53-16.39 372.06-15.63 373.42-15.06 374.78-14.5 377.21-13.98L377.21-13.98Q380.33-13.35 382.17-12.48 384.01-11.6 384.81-10.26 385.61-8.93 385.61-6.83L385.61-6.83 385.61-6.4Q385.61-2.95 383.21-1.2 380.81 0.55 376.13 0.55ZM398.03 0.55L398.03 0.55Q395.08 0.55 392.88-0.09 390.68-0.73 389.23-1.48L389.23-1.48 388.86-5.23Q390.68-4.28 392.87-3.58 395.06-2.88 397.83-2.88L397.83-2.88Q400.66-2.88 402.08-3.78 403.51-4.67 403.51-6.45L403.51-6.45 403.51-6.73Q403.51-7.88 402.97-8.63 402.43-9.38 401.03-9.95 399.63-10.53 397.06-11.1L397.06-11.1Q393.98-11.78 392.21-12.69 390.43-13.6 389.67-14.95 388.91-16.3 388.91-18.25L388.91-18.25 388.91-18.48Q388.91-21.68 391.13-23.33 393.36-24.98 397.83-24.98L397.83-24.98Q400.71-24.98 402.82-24.33 404.93-23.68 406.28-22.88L406.28-22.88 406.66-19.45Q405.03-20.4 402.93-21.03 400.83-21.65 398.21-21.65L398.21-21.65Q396.31-21.65 395.13-21.26 393.96-20.88 393.43-20.16 392.91-19.45 392.91-18.45L392.91-18.45 392.91-18.25Q392.91-17.15 393.43-16.39 393.96-15.63 395.32-15.06 396.68-14.5 399.11-13.98L399.11-13.98Q402.23-13.35 404.07-12.48 405.91-11.6 406.71-10.26 407.51-8.93 407.51-6.83L407.51-6.83 407.51-6.4Q407.51-2.95 405.11-1.2 402.71 0.55 398.03 0.55ZM430.85 0.4L430.85 0.4Q429.23 0.4 427.68 0.13 426.13-0.15 424.88-0.65L424.88-0.65 424.58-4.38Q425.88-3.78 427.24-3.49 428.6-3.2 430.03-3.2L430.03-3.2Q433.38-3.2 434.65-4.75 435.93-6.3 435.93-9.47L435.93-9.47 435.93-31.95 440.08-31.95 440.08-9.22Q440.08-4.5 437.98-2.05 435.88 0.4 430.85 0.4ZM456.4 0.63L456.4 0.63Q451.15 0.63 448.44-2.21 445.73-5.05 445.73-10.38L445.73-10.38 445.73-14.1Q445.73-19.4 448.45-22.23 451.18-25.05 456.4-25.05L456.4-25.05Q461.65-25.05 464.36-22.23 467.08-19.4 467.08-14.1L467.08-14.1 467.08-10.38Q467.08-5.05 464.36-2.21 461.65 0.63 456.4 0.63ZM456.4-2.68L456.4-2.68Q459.65-2.68 461.34-4.6 463.03-6.53 463.03-10.15L463.03-10.15 463.03-14.33Q463.03-17.93 461.34-19.84 459.65-21.75 456.4-21.75L456.4-21.75Q453.18-21.75 451.48-19.84 449.78-17.93 449.78-14.33L449.78-14.33 449.78-10.15Q449.78-6.53 451.48-4.6 453.18-2.68 456.4-2.68ZM472.4-24.4L476.42-24.4 476.42-9.22Q476.42-7.3 476.96-5.86 477.5-4.42 478.72-3.64 479.95-2.85 482.02-2.85L482.02-2.85Q483.97-2.85 485.37-3.56 486.77-4.28 487.66-5.53 488.55-6.78 488.87-8.35L488.87-8.35 489.6-5.48 488.72-5.48Q488.35-3.83 487.35-2.46 486.35-1.1 484.66-0.29 482.97 0.53 480.5 0.53L480.5 0.53Q477.62 0.53 475.84-0.56 474.05-1.65 473.22-3.74 472.4-5.83 472.4-8.78L472.4-8.78 472.4-24.4ZM488.7-24.4L492.75-24.4 492.75 0 488.7 0 488.87-5.85 488.7-6.1 488.7-24.4ZM503.19-14.93L503.19-14.93 502.27-18.05 503.27-18.1Q504.07-21.2 506.02-22.99 507.97-24.78 511.19-24.78L511.19-24.78Q512-24.78 512.63-24.65 513.27-24.53 513.77-24.35L513.77-24.35 514.02-20.43Q513.39-20.63 512.63-20.75 511.87-20.88 510.94-20.88L510.94-20.88Q508.19-20.88 506.16-19.35 504.12-17.82 503.19-14.93ZM503.4 0L499.35 0 499.35-24.4 503.3-24.4 503.1-17.2 503.4-16.9 503.4 0ZM538.37 0L534.32 0 534.32-15.18Q534.32-17.15 533.78-18.57 533.24-20 532.03-20.79 530.82-21.58 528.72-21.58L528.72-21.58Q526.79-21.58 525.38-20.85 523.97-20.13 523.09-18.89 522.22-17.65 521.87-16.07L521.87-16.07 521.14-18.95 522.02-18.95Q522.42-20.6 523.42-21.96 524.42-23.33 526.11-24.14 527.79-24.95 530.24-24.95L530.24-24.95Q533.14-24.95 534.93-23.85 536.72-22.75 537.54-20.69 538.37-18.63 538.37-15.63L538.37-15.63 538.37 0ZM522.04 0L517.99 0 517.99-24.4 522.04-24.4 521.87-18.55 522.04-18.32 522.04 0ZM554.89 0.55L554.89 0.55Q549.31 0.55 546.49-2.18 543.66-4.9 543.66-9.98L543.66-9.98 543.66-14.33Q543.66-19.48 546.29-22.26 548.91-25.05 553.96-25.05L553.96-25.05Q557.36-25.05 559.64-23.79 561.91-22.53 563.06-20.2 564.21-17.88 564.21-14.65L564.21-14.65 564.21-13.75Q564.21-12.95 564.15-12.15 564.09-11.35 563.99-10.58L563.99-10.58 560.26-10.58Q560.31-11.78 560.33-12.85 560.34-13.93 560.34-14.83L560.34-14.83Q560.34-17.05 559.63-18.59 558.91-20.13 557.5-20.94 556.09-21.75 553.96-21.75L553.96-21.75Q550.81-21.75 549.24-19.93 547.66-18.1 547.66-14.7L547.66-14.7 547.66-12.38 547.69-11.88 547.69-9.55Q547.69-8.03 548.14-6.8 548.59-5.58 549.55-4.69 550.51-3.8 552-3.34 553.49-2.88 555.54-2.88L555.54-2.88Q557.91-2.88 559.96-3.5 562.01-4.13 563.81-5.2L563.81-5.2 563.44-1.7Q561.81-0.68 559.66-0.06 557.51 0.55 554.89 0.55ZM563.14-10.58L545.79-10.58 545.79-13.63 563.14-13.63 563.14-10.58ZM577.79-3.78L580.11-3.78 577.99-2.85 585.29-24.4 589.46-24.4 577.99 8.6 573.89 8.6 577.74-2.55 579.51-1 574.91-1 566.94-24.4 571.14-24.4 577.79-3.78ZM621.48 0L611.03 0 611.03-3.43 621.08-3.43Q624.33-3.43 625.69-4.81 627.06-6.2 627.06-8.65L627.06-8.65 627.06-9.55Q627.06-12.05 625.67-13.43 624.28-14.8 620.83-14.8L620.83-14.8 611.06-14.8 611.06-18.07 620.78-18.07Q623.86-18.07 625.17-19.41 626.48-20.75 626.48-23.13L626.48-23.13 626.48-23.58Q626.48-25.93 625.22-27.24 623.96-28.55 620.76-28.55L620.76-28.55 610.96-28.55 610.96-31.95 621.13-31.95Q626.23-31.95 628.43-29.93 630.63-27.9 630.63-24.23L630.63-24.23 630.63-23.73Q630.63-20.8 629.23-19.13 627.83-17.45 624.88-17.13L624.88-17.13 624.86-16.98Q628.23-16.48 629.76-14.63 631.28-12.78 631.28-9.47L631.28-9.47 631.28-8.45Q631.28-4.48 628.98-2.24 626.68 0 621.48 0L621.48 0ZM612.31 0L608.21 0 608.21-31.95 612.31-31.95 612.31 0ZM647.08 0.55L647.08 0.55Q641.5 0.55 638.68-2.18 635.85-4.9 635.85-9.98L635.85-9.98 635.85-14.33Q635.85-19.48 638.48-22.26 641.1-25.05 646.15-25.05L646.15-25.05Q649.55-25.05 651.83-23.79 654.1-22.53 655.25-20.2 656.4-17.88 656.4-14.65L656.4-14.65 656.4-13.75Q656.4-12.95 656.34-12.15 656.28-11.35 656.18-10.58L656.18-10.58 652.45-10.58Q652.5-11.78 652.52-12.85 652.53-13.93 652.53-14.83L652.53-14.83Q652.53-17.05 651.82-18.59 651.1-20.13 649.69-20.94 648.28-21.75 646.15-21.75L646.15-21.75Q643-21.75 641.43-19.93 639.85-18.1 639.85-14.7L639.85-14.7 639.85-12.38 639.88-11.88 639.88-9.55Q639.88-8.03 640.33-6.8 640.78-5.58 641.74-4.69 642.7-3.8 644.19-3.34 645.68-2.88 647.73-2.88L647.73-2.88Q650.1-2.88 652.15-3.5 654.2-4.13 656-5.2L656-5.2 655.63-1.7Q654-0.68 651.85-0.06 649.7 0.55 647.08 0.55ZM655.33-10.58L637.98-10.58 637.98-13.63 655.33-13.63 655.33-10.58ZM671.25-7.3L671.25-7.3Q666.28-7.3 663.61-9.47 660.95-11.65 660.95-15.7L660.95-15.7 660.95-16.32Q660.95-18.85 661.99-20.73 663.03-22.6 665.3-23.66 667.58-24.73 671.25-24.83L671.25-24.83 683.7-25.23 683.7-22.03 676.35-22.28 676.33-22.1Q678.05-21.75 679.15-20.9 680.25-20.05 680.79-18.78 681.33-17.5 681.33-15.8L681.33-15.8 681.33-15.25Q681.33-11.38 678.78-9.34 676.23-7.3 671.25-7.3ZM671.08 6.15L671.08 6.15 671.65 6.15Q673.9 6.15 675.51 5.81 677.13 5.48 678 4.75 678.88 4.03 678.88 2.83L678.88 2.83 678.88 2.73Q678.88 1.33 677.86 0.59 676.85-0.15 674.4-0.38L674.4-0.38 667.5-1 668.65-1.05Q667.25-0.85 666.19-0.4 665.13 0.05 664.53 0.79 663.93 1.53 663.93 2.63L663.93 2.63 663.93 2.68Q663.93 3.95 664.8 4.73 665.68 5.5 667.28 5.83 668.88 6.15 671.08 6.15ZM671.58 9.38L670.85 9.38Q667.55 9.38 665.16 8.81 662.78 8.25 661.46 6.99 660.15 5.73 660.15 3.6L660.15 3.6 660.15 3.5Q660.15 2 660.86 1 661.58 0 662.79-0.58 664-1.15 665.5-1.35L665.5-1.35 665.48-1.5Q663.43-1.85 662.45-2.71 661.48-3.58 661.48-4.95L661.48-4.95 661.48-4.98Q661.48-5.93 661.91-6.6 662.35-7.28 663.24-7.68 664.13-8.08 665.5-8.18L665.5-8.18 665.5-8.68 670.15-7.5 668.25-7.55Q666.55-7.53 665.9-7.14 665.25-6.75 665.25-5.98L665.25-5.98 665.25-5.95Q665.25-5.13 666.18-4.7 667.1-4.28 669.33-4.03L669.33-4.03 675.25-3.43Q679.13-3.03 680.9-1.56 682.68-0.1 682.68 2.75L682.68 2.75 682.68 2.88Q682.68 5.15 681.33 6.6 679.98 8.05 677.5 8.71 675.03 9.38 671.58 9.38L671.58 9.38ZM671.2-10.3L671.2-10.3Q673.3-10.3 674.69-10.91 676.08-11.53 676.79-12.76 677.5-14 677.5-15.8L677.5-15.8 677.5-16.4Q677.5-18.15 676.81-19.38 676.13-20.6 674.75-21.24 673.38-21.88 671.3-21.88L671.3-21.88 671.15-21.88Q668.9-21.88 667.49-21.19 666.08-20.5 665.44-19.26 664.8-18.03 664.8-16.38L664.8-16.38 664.8-15.8Q664.8-14 665.51-12.78 666.23-11.55 667.65-10.93 669.08-10.3 671.2-10.3ZM691.5 0L687.45 0 687.45-24.4 691.5-24.4 691.5 0ZM689.47-28.4L689.47-28.4Q688.22-28.4 687.61-29.06 687-29.73 687-30.88L687-30.88 687-31Q687-32.18 687.61-32.83 688.22-33.48 689.47-33.48L689.47-33.48Q690.72-33.48 691.35-32.83 691.97-32.18 691.97-31L691.97-31 691.97-30.88Q691.97-29.7 691.35-29.05 690.72-28.4 689.47-28.4ZM718.57 0L714.52 0 714.52-15.18Q714.52-17.15 713.98-18.57 713.45-20 712.23-20.79 711.02-21.58 708.92-21.58L708.92-21.58Q707-21.58 705.58-20.85 704.17-20.13 703.3-18.89 702.42-17.65 702.07-16.07L702.07-16.07 701.35-18.95 702.22-18.95Q702.62-20.6 703.62-21.96 704.62-23.33 706.31-24.14 708-24.95 710.45-24.95L710.45-24.95Q713.35-24.95 715.13-23.85 716.92-22.75 717.75-20.69 718.57-18.63 718.57-15.63L718.57-15.63 718.57 0ZM702.25 0L698.2 0 698.2-24.4 702.25-24.4 702.07-18.55 702.25-18.32 702.25 0ZM732.47 0.55L732.47 0.55Q729.52 0.55 727.32-0.09 725.12-0.73 723.67-1.48L723.67-1.48 723.29-5.23Q725.12-4.28 727.31-3.58 729.49-2.88 732.27-2.88L732.27-2.88Q735.09-2.88 736.52-3.78 737.94-4.67 737.94-6.45L737.94-6.45 737.94-6.73Q737.94-7.88 737.41-8.63 736.87-9.38 735.47-9.95 734.07-10.53 731.49-11.1L731.49-11.1Q728.42-11.78 726.64-12.69 724.87-13.6 724.11-14.95 723.34-16.3 723.34-18.25L723.34-18.25 723.34-18.48Q723.34-21.68 725.57-23.33 727.79-24.98 732.27-24.98L732.27-24.98Q735.14-24.98 737.26-24.33 739.37-23.68 740.72-22.88L740.72-22.88 741.09-19.45Q739.47-20.4 737.37-21.03 735.27-21.65 732.64-21.65L732.64-21.65Q730.74-21.65 729.57-21.26 728.39-20.88 727.87-20.16 727.34-19.45 727.34-18.45L727.34-18.45 727.34-18.25Q727.34-17.15 727.87-16.39 728.39-15.63 729.76-15.06 731.12-14.5 733.54-13.98L733.54-13.98Q736.67-13.35 738.51-12.48 740.34-11.6 741.14-10.26 741.94-8.93 741.94-6.83L741.94-6.83 741.94-6.4Q741.94-2.95 739.54-1.2 737.14 0.55 732.47 0.55Z" opacity="1" transform="matrix(1,0,0,1,0,0)" fill="#89939e" class="slogan-text-1" data-fill-palette-color="secondary" id="text-1"></path></svg></g></svg></g></svg></g></svg></g><g transform="matrix(1,0,0,1,75.54432,0)"><svg viewBox="0 0 244.43135999999998 244.43135999999998" height="244.43135999999998" width="244.43135999999998"><g><svg viewBox="0 0 244.43135999999998 244.43135999999998" height="244.43135999999998" width="244.43135999999998"><g transform="matrix(1,0,0,1,64.60265593644992,64.66667040763164)"><svg viewBox="0 0 115.22604812710014 115.0980191847367" height="115.0980191847367" width="115.22604812710014"><g><svg xmlns="http://www.w3.org/2000/svg" xmlns:xlink="http://www.w3.org/1999/xlink" version="1.1" x="0" y="0" viewBox="5 5 90 89.9" style="enable-background:new 0 0 100 100;" xml:space="preserve" height="115.0980191847367" width="115.22604812710014" class="icon-dxe-0" data-fill-palette-color="accent" id="dxe-0"><path d="M80.7 10.9C78.6 10.9 76.4 11.7 74.8 13.4L74 14.2 67.4 7.6C65.6 5.8 63.4 5 61.2 5S56.7 5.8 55 7.5C54.2 8.3 53.6 9.2 53.2 10.2A8.82 8.82 0 0 0 47.2 7.8C45 7.8 42.7 8.6 41 10.3S38.4 14.3 38.5 16.5C38.5 18.7 39.3 21 41 22.7L52.2 33.9 53.3 35 34.9 53.3 33.8 52.2 22.7 41C21 39.3 18.7 38.4 16.5 38.5 14.3 38.5 12 39.3 10.3 41S7.8 44.9 7.8 47.2C7.8 49.4 8.6 51.5 10.2 53.2 9.2 53.6 8.3 54.2 7.5 55 5.8 56.7 5 59 5 61.2S5.8 65.7 7.5 67.4L14.1 74 13.3 74.8C11.7 76.4 10.8 78.6 10.8 80.7S11.6 85 13.3 86.6C14.9 88.2 17.1 89.1 19.2 89.1S23.5 88.3 25.1 86.6L25.9 85.8 32.5 92.4C34.2 94.1 36.4 94.9 38.6 94.9S43.1 94.1 44.8 92.4C45.6 91.6 46.2 90.7 46.6 89.7 48.3 91.3 50.5 92.1 52.6 92.1 54.8 92.1 57.1 91.3 58.8 89.6S61.3 85.7 61.3 83.4C61.3 81.2 60.5 78.9 58.8 77.2L47.8 66.2 46.8 65.2 65.2 46.8 66.2 47.8 77.3 59C79 60.7 81.2 61.5 83.5 61.5 85.7 61.5 88 60.7 89.7 59S92.2 55.1 92.2 52.8C92.2 50.6 91.4 48.5 89.8 46.8 90.8 46.4 91.7 45.8 92.5 45 94.2 43.3 95 41.1 95 38.8 95 36.6 94.2 34.4 92.5 32.7L85.8 26 86.6 25.2C88.2 23.6 89.1 21.4 89.1 19.3S88.3 15 86.6 13.4C85 11.7 82.9 10.9 80.7 10.9M22.1 81.9L21.3 82.7C20.7 83.3 20 83.5 19.3 83.5S17.9 83.2 17.3 82.7C16.7 82.1 16.5 81.5 16.5 80.7 16.5 80 16.8 79.3 17.3 78.7L18.1 77.9zM41 84.1C41.6 84.7 41.9 85.5 41.9 86.3S41.6 87.9 41 88.5 39.6 89.4 38.8 89.4 37.2 89.1 36.6 88.5L20.1 72 11.5 63.4C10.9 62.8 10.6 62 10.6 61.2S10.9 59.6 11.5 59 12.9 58.1 13.7 58.1 15.3 58.4 15.9 59zM29.9 56.2L40.8 67.1 43.8 70.1 55 81.3C55.6 81.9 55.9 82.7 55.9 83.5S55.6 85.1 55 85.7 53.6 86.6 52.8 86.6 51.2 86.3 50.6 85.7L19.9 55 14.3 49.4C13.7 48.8 13.4 48 13.4 47.2S13.7 45.6 14.3 45 15.7 44.1 16.5 44.1 18.1 44.4 18.7 45zM61.2 42.8L42.8 61.2 38.9 57.3 57.3 38.9zM55 19.9L85.7 50.6C86.3 51.2 86.6 52 86.6 52.8S86.3 54.4 85.7 55 84.3 55.9 83.5 55.9 81.9 55.6 81.3 55L70.1 43.8 67.1 40.8 56.2 29.9 45 18.7C44.4 18.1 44.1 17.3 44.1 16.5S44.4 14.9 45 14.3 46.4 13.4 47.2 13.4 48.8 13.7 49.4 14.3zM72 20.1L88.5 36.6C89.1 37.2 89.4 38 89.4 38.8S89.1 40.4 88.5 41 87.1 41.9 86.3 41.9 84.7 41.6 84.1 41L59 15.9C58.4 15.3 58.1 14.5 58.1 13.7S58.4 12.1 59 11.5 60.4 10.6 61.2 10.6 62.8 10.9 63.4 11.5zM83.5 19.3C83.5 20 83.2 20.7 82.7 21.3L81.9 22.1 78 18.2 78.8 17.4C79.4 16.8 80.1 16.6 80.8 16.6S82.2 16.9 82.8 17.4C83.2 17.9 83.5 18.6 83.5 19.3" fill="#000000" data-fill-palette-color="accent"></path></svg></g></svg></g><g id="text-0"><path d="M21.433 86.42v0l-2.189 6.361-2.385-0.821 2.166-6.295c0.519-1.509 0.517-2.738-0.008-3.686-0.521-0.939-1.445-1.638-2.773-2.094v0l-1.506-0.519c-1.353-0.466-2.517-0.489-3.491-0.071-0.97 0.427-1.713 1.391-2.23 2.894v0l-2.183 6.342-2.375-0.817 2.201-6.398c0.85-2.469 2.049-4.069 3.597-4.799 1.548-0.73 3.339-0.745 5.372-0.045v0l1.665 0.573c2.058 0.708 3.474 1.833 4.247 3.376 0.776 1.536 0.74 3.536-0.108 5.999zM19.186 91.673l7.764 2.671-0.979 2.844-22.15-7.622 0.972-2.825 13.105 4.509z" fill="#000000" data-fill-palette-color="accent"></path><path d="M26.872 67.713v0l-2.32-0.594 0.347-0.657c-1.096-1.11-1.776-2.297-2.04-3.562-0.256-1.268 0.021-2.578 0.831-3.93v0c0.2-0.334 0.407-0.621 0.62-0.862 0.21-0.235 0.415-0.436 0.614-0.602v0l2.561 1.326c-0.241 0.209-0.481 0.457-0.722 0.744-0.244 0.292-0.483 0.633-0.717 1.024v0c-0.688 1.149-0.968 2.341-0.84 3.579 0.128 1.237 0.683 2.415 1.666 3.534zM25.701 66.838l10.634 6.368-1.525 2.546-15.353-9.193 1.484-2.478 4.461 2.832z" fill="#000000" data-fill-palette-color="accent"></path><path d="M49.365 56.844v0c-1.719 1.913-3.537 2.899-5.453 2.959-1.916 0.06-3.843-0.781-5.78-2.523v0l-2.031-1.825c-1.927-1.733-2.958-3.555-3.093-5.467-0.139-1.917 0.646-3.826 2.357-5.729v0c1.715-1.908 3.531-2.892 5.447-2.952 1.911-0.064 3.831 0.77 5.758 2.503v0l2.031 1.825c1.937 1.741 2.978 3.568 3.121 5.48 0.144 1.912-0.642 3.821-2.357 5.729zM47.57 55.23v0c1.063-1.182 1.519-2.395 1.369-3.638-0.15-1.244-0.883-2.456-2.197-3.638v0l-2.281-2.05c-1.309-1.177-2.586-1.77-3.828-1.778-1.248-0.013-2.403 0.571-3.465 1.753v0c-1.054 1.172-1.51 2.38-1.369 3.624 0.136 1.24 0.859 2.448 2.168 3.625v0l2.28 2.051c1.314 1.182 2.6 1.779 3.857 1.791 1.257 0.013 2.412-0.567 3.466-1.74z" fill="#000000" data-fill-palette-color="accent"></path><path d="M54.232 24.328l6.778 21.273-2.537 1.739-7.202-23.464 3.965-2.719 19.309 15.163-2.546 1.745-17.392-13.994zM65.561 31.037l1.427 2.081-8.795 6.03-1.427-2.08z" fill="#000000" data-fill-palette-color="accent"></path><path d="M86.845 31.454v0c-2.372 0.977-4.402 1.062-6.091 0.252-1.686-0.803-3.013-2.378-3.98-4.725v0l-1.063-2.58c-0.972-2.36-1.139-4.417-0.5-6.17 0.642-1.748 2.143-3.108 4.503-4.081v0c0.701-0.289 1.368-0.489 1.999-0.6 0.626-0.108 1.212-0.15 1.757-0.125 0.543 0.019 1.019 0.076 1.429 0.171v0l1.222 2.289c-0.696-0.184-1.466-0.27-2.31-0.257-0.847 0.021-1.762 0.234-2.744 0.639v0c-1.585 0.653-2.584 1.579-2.996 2.775-0.409 1.189-0.269 2.618 0.419 4.289v0l1.006 2.442c0.676 1.64 1.579 2.741 2.709 3.302 1.139 0.565 2.501 0.521 4.086-0.132v0c1.018-0.42 1.838-0.922 2.461-1.506 0.62-0.591 1.136-1.206 1.55-1.848v0l0.742 2.529c-0.356 0.539-0.876 1.121-1.559 1.745-0.687 0.618-1.567 1.149-2.64 1.591z" fill="#000000" data-fill-palette-color="accent"></path><path d="M104.764 26.491v0c-1.351 0.272-2.482 0.287-3.391 0.046-0.909-0.241-1.632-0.738-2.167-1.491-0.541-0.752-0.936-1.746-1.185-2.981v0l-2.225-11.065 2.881-0.579 2.156 10.726c0.231 1.151 0.664 1.945 1.297 2.383 0.641 0.443 1.585 0.539 2.833 0.288v0c0.705-0.142 1.368-0.356 1.989-0.643 0.622-0.286 1.191-0.633 1.709-1.039v0l0.231 2.556c-0.505 0.398-1.119 0.756-1.842 1.077-0.716 0.319-1.478 0.56-2.286 0.722zM105.618 7.955l0.208 2.39-12.637 2.541-0.47-2.337zM97.51 4.369l0.951 5.328-2.793 0.562-1.01-4.923z" fill="#000000" data-fill-palette-color="accent"></path><path d="M118.145 6.544l1.161 17.858-2.961 0.192-1.162-17.857zM116.474 3.719v0c-0.605 0.039-1.07-0.092-1.394-0.395-0.317-0.303-0.494-0.738-0.531-1.304v0l-0.006-0.089c-0.037-0.573 0.082-1.026 0.358-1.361 0.282-0.336 0.726-0.523 1.331-0.563v0c0.612-0.04 1.08 0.088 1.403 0.385 0.33 0.296 0.513 0.73 0.551 1.302v0l0.006 0.089c0.038 0.579-0.088 1.037-0.377 1.373-0.282 0.336-0.729 0.523-1.341 0.563z" fill="#000000" data-fill-palette-color="accent"></path><path d="M131.005 7.073l3.152 16.309 0.443 0.049 6.678-15.209 3.058 0.342-7.761 17.139-4.847-0.543-3.78-18.429z" fill="#000000" data-fill-palette-color="accent"></path><path d="M155.442 30.75v0c-2.589-0.847-4.331-2.117-5.227-3.812-0.902-1.697-0.968-3.723-0.197-6.08v0l0.993-3.037c0.783-2.394 1.997-4.037 3.641-4.929 1.64-0.9 3.636-0.965 5.986-0.197v0c1.58 0.517 2.8 1.242 3.66 2.175 0.869 0.929 1.392 2.023 1.571 3.282 0.187 1.254 0.035 2.631-0.455 4.129v0l-0.206 0.63c-0.121 0.37-0.258 0.735-0.41 1.094-0.154 0.366-0.312 0.72-0.473 1.063v0l-2.595-0.848c0.207-0.55 0.392-1.072 0.554-1.568 0.17-0.499 0.324-0.959 0.462-1.379v0c0.338-1.034 0.461-1.962 0.369-2.783-0.099-0.823-0.415-1.53-0.951-2.122-0.535-0.591-1.295-1.048-2.279-1.369v0c-1.467-0.48-2.702-0.415-3.706 0.193-1.01 0.606-1.773 1.699-2.29 3.279v0l-0.532 1.626-0.095 0.355-0.528 1.617c-0.232 0.708-0.337 1.381-0.317 2.019 0.02 0.638 0.189 1.238 0.504 1.799 0.312 0.553 0.777 1.052 1.395 1.497 0.626 0.441 1.415 0.817 2.368 1.128v0c1.103 0.361 2.178 0.553 3.225 0.576 1.049 0.017 2.071-0.086 3.067-0.308v0l-1.059 2.349c-0.908 0.23-1.91 0.323-3.005 0.277-1.091-0.038-2.248-0.256-3.47-0.656zM164.428 22.75l-0.695 2.125-12.091-3.954 0.694-2.125z" fill="#000000" data-fill-palette-color="accent"></path><path d="M184.627 47.192v0c-1.396-1.094-2.345-2.29-2.845-3.586-0.505-1.301-0.574-2.678-0.205-4.133 0.37-1.445 1.155-2.933 2.355-4.463v0l3.417-4.361c1.9-2.424 3.983-3.799 6.25-4.125 2.267-0.327 4.607 0.456 7.02 2.347v0c0.867 0.679 1.598 1.366 2.195 2.059 0.596 0.693 1.082 1.367 1.457 2.022 0.366 0.656 0.649 1.262 0.848 1.821v0l-1.479 2.335c-0.335-0.941-0.825-1.925-1.471-2.95-0.65-1.02-1.566-1.994-2.75-2.922v0c-1.791-1.403-3.502-1.973-5.132-1.71-1.622 0.262-3.134 1.289-4.538 3.08v0l-3.368 4.298c-1.298 1.656-1.912 3.236-1.842 4.74 0.07 1.504 0.88 2.864 2.432 4.08v0c0.789 0.618 1.57 1.012 2.342 1.182 0.768 0.175 1.509 0.181 2.222 0.02 0.704-0.161 1.346-0.44 1.927-0.84v0l3.564-4.547-0.282 1.161-4.345-3.404 1.562-1.994 6.291 4.931-5.711 7.287-2.339-1.858c-0.624 0.475-1.326 0.825-2.106 1.052-0.781 0.226-1.63 0.231-2.549 0.013-0.919-0.217-1.892-0.729-2.92-1.535zM192.167 52.549l-2.335-1.83 3.085-3.728 2.234 1.751z" fill="#000000" data-fill-palette-color="accent"></path><path d="M212.14 48.393l-8.877 13.182 1.052 1.337-1.497-0.799 15.735-5.562 1.889 2.403-24.218 8.344-1.859-2.365 8.166-2.833-0.087 1.73-2.085-2.652 9.88-15.204z" fill="#000000" data-fill-palette-color="accent"></path><path d="M229.923 93.696l-10.555 4.652-1.197-2.715 10.247-4.517c0.863-0.38 1.562-0.822 2.097-1.324 0.532-0.494 0.864-1.065 0.995-1.715 0.123-0.652 0-1.398-0.369-2.237v0c-0.348-0.791-0.815-1.407-1.399-1.848-0.575-0.438-1.213-0.716-1.913-0.833-0.703-0.123-1.433-0.103-2.191 0.058v0l1.745-1.266 0.148 0.335c0.786-0.13 1.574-0.117 2.363 0.039 0.792 0.162 1.532 0.525 2.219 1.086 0.69 0.568 1.27 1.386 1.741 2.454v0c0.537 1.219 0.733 2.308 0.586 3.267-0.156 0.955-0.619 1.808-1.391 2.559-0.769 0.757-1.811 1.425-3.127 2.005zM222.629 72.49l-12.274 5.41-1.198-2.715 16.375-7.218 1.197 2.715-3.98 1.614zM225.491 83.422l-10.636 4.689-1.189-2.698 10.247-4.516c0.863-0.38 1.563-0.819 2.101-1.316 0.532-0.494 0.864-1.065 0.996-1.714 0.129-0.64 0.008-1.38-0.362-2.219v0c-0.356-0.809-0.825-1.431-1.407-1.867-0.575-0.438-1.22-0.716-1.935-0.833-0.712-0.111-1.45-0.085-2.214 0.078v0l1.705-1.356 0.267 0.606c0.811-0.156 1.611-0.163 2.402-0.021 0.793 0.148 1.528 0.498 2.203 1.051 0.673 0.546 1.235 1.33 1.685 2.349v0c0.665 1.509 0.783 2.83 0.352 3.963-0.439 1.13-1.361 2.128-2.767 2.993v0c-0.199 0.153-0.426 0.3-0.681 0.441-0.258 0.135-0.513 0.259-0.767 0.37z" fill="#000000" data-fill-palette-color="accent"></path><path d="M19.419 165.41v0l-2.315-6.652 2.503-0.872 2.29 6.577c0.553 1.588 1.348 2.6 2.386 3.035 1.04 0.441 2.258 0.419 3.653-0.067v0l1.57-0.546c1.42-0.494 2.393-1.231 2.918-2.21 0.527-0.973 0.517-2.247-0.032-3.823v0l-2.309-6.633 2.485-0.865 2.329 6.689c0.902 2.591 0.95 4.686 0.145 6.287-0.805 1.6-2.272 2.771-4.402 3.512v0l-1.738 0.604c-2.155 0.75-4.05 0.743-5.685-0.021-1.635-0.765-2.901-2.436-3.798-5.015zM17.878 159.63l-8.127 2.829-1.038-2.98 23.179-8.068 1.031 2.962-13.715 4.773z" fill="#000000" data-fill-palette-color="accent"></path><path d="M30.553 181.007v0l1.691-1.851 0.432 0.641c1.567-0.467 3.001-0.508 4.304-0.123 1.299 0.379 2.374 1.275 3.226 2.687v0c0.215 0.356 0.377 0.689 0.487 0.999 0.114 0.316 0.199 0.604 0.255 0.863v0l-2.482 1.728c-0.076-0.331-0.19-0.679-0.34-1.043-0.144-0.367-0.339-0.754-0.584-1.161v0c-0.729-1.209-1.695-2.058-2.9-2.548-1.21-0.487-2.573-0.551-4.089-0.192zM31.931 180.361l-11.115 6.702-1.609-2.669 16.054-9.679 1.568 2.601-4.817 2.719z" fill="#000000" data-fill-palette-color="accent"></path><path d="M35.257 206.778v0c-1.798-1.993-2.622-3.994-2.472-6.004 0.15-2 1.238-3.915 3.266-5.743v0l2.122-1.915c2.013-1.815 4.024-2.693 6.033-2.631 2.009 0.071 3.908 1.098 5.697 3.081v0c1.802 1.998 2.633 3.997 2.493 5.998-0.15 2-1.231 3.908-3.244 5.723v0l-2.122 1.915c-2.027 1.829-4.043 2.715-6.049 2.658-2.014-0.057-3.922-1.084-5.724-3.082zM37.144 205.075v0c1.118 1.239 2.33 1.85 3.639 1.834 1.313-0.021 2.658-0.652 4.034-1.894v0l2.38-2.147c1.371-1.237 2.13-2.503 2.276-3.798 0.151-1.3-0.332-2.569-1.45-3.808v0c-1.104-1.224-2.313-1.83-3.626-1.818-1.308 0.007-2.647 0.629-4.018 1.866v0l-2.38 2.147c-1.376 1.241-2.14 2.516-2.291 3.825-0.147 1.305 0.332 2.569 1.436 3.793z" fill="#000000" data-fill-palette-color="accent"></path><path d="M68.889 205.359l-18.19 14.704-2.665-1.817 20.176-15.948 4.152 2.831-7.458 24.619-2.665-1.817 7.042-22.304zM66.651 218.967l-1.493 2.19-9.236-6.297 1.493-2.19z" fill="#000000" data-fill-palette-color="accent"></path><path d="M79.93 236.936v0c-2.484-1.017-4.057-2.449-4.719-4.295-0.665-1.84-0.492-3.993 0.518-6.458v0l1.106-2.701c1.015-2.478 2.402-4.133 4.161-4.966 1.765-0.831 3.887-0.739 6.364 0.276v0c0.738 0.302 1.382 0.644 1.932 1.026 0.549 0.382 1.017 0.78 1.403 1.195 0.392 0.417 0.704 0.812 0.936 1.185v0l-0.78 2.609c-0.38-0.655-0.891-1.288-1.531-1.899-0.643-0.605-1.48-1.119-2.512-1.541v0c-1.66-0.68-3.083-0.728-4.269-0.145-1.189 0.589-2.142 1.759-2.86 3.511v0l-1.046 2.554c-0.705 1.721-0.84 3.208-0.406 4.462 0.432 1.26 1.478 2.23 3.138 2.91v0c1.062 0.435 2.045 0.663 2.948 0.683 0.895 0.024 1.732-0.053 2.512-0.233v0l-1.304 2.427c-0.672 0.145-1.491 0.195-2.456 0.149-0.961-0.037-2.006-0.287-3.135-0.749z" fill="#000000" data-fill-palette-color="accent"></path><path d="M101.228 242.783v0c-1.416-0.283-2.515-0.725-3.296-1.326-0.781-0.6-1.279-1.372-1.493-2.316-0.215-0.944-0.193-2.063 0.066-3.356v0l2.321-11.601 3.007 0.601-2.249 11.242c-0.241 1.203-0.14 2.148 0.3 2.835 0.436 0.679 1.307 1.149 2.613 1.41v0c0.744 0.149 1.471 0.21 2.183 0.185 0.718-0.025 1.408-0.129 2.07-0.312v0l-0.805 2.562c-0.648 0.18-1.385 0.281-2.21 0.305-0.83 0.015-1.666-0.061-2.507-0.229zM109.546 225.209l-0.772 2.397-13.24-2.649 0.491-2.454zM103.156 218.472l-1.238 5.533-2.919-0.584 1.013-5.164z" fill="#000000" data-fill-palette-color="accent"></path><path d="M119.205 225.729l-1.275 18.702-3.109-0.212 1.276-18.702zM117.855 222.563v0c-0.638-0.044-1.1-0.247-1.387-0.61-0.293-0.357-0.419-0.832-0.378-1.424v0l0.006-0.089c0.041-0.599 0.231-1.055 0.569-1.369 0.332-0.308 0.817-0.44 1.455-0.396v0c0.638 0.044 1.107 0.241 1.407 0.591 0.293 0.357 0.419 0.835 0.378 1.434v0l-0.006 0.089c-0.041 0.605-0.231 1.062-0.569 1.369-0.345 0.314-0.837 0.449-1.475 0.405z" fill="#000000" data-fill-palette-color="accent"></path><path d="M128.253 225.298l6.919 15.975 0.453-0.048 3.389-17.076 3.216-0.343-4.068 19.286-5.076 0.542-8.049-17.992z" fill="#000000" data-fill-palette-color="accent"></path><path d="M160.846 238.173v0c-2.719 0.872-4.98 0.862-6.783-0.028-1.8-0.884-3.098-2.567-3.892-5.048v0l-1.018-3.174c-0.805-2.512-0.789-4.654 0.05-6.425 0.846-1.767 2.5-3.045 4.962-3.835v0c1.658-0.531 3.141-0.667 4.45-0.408 1.309 0.259 2.424 0.864 3.345 1.816 0.923 0.958 1.636 2.221 2.14 3.791v0l0.211 0.66c0.125 0.389 0.235 0.787 0.331 1.192 0.1 0.397 0.185 0.793 0.255 1.186v0l-2.722 0.872c-0.168-0.59-0.334-1.15-0.497-1.679-0.161-0.523-0.312-1.005-0.453-1.445v0c-0.348-1.086-0.815-1.948-1.399-2.584-0.587-0.643-1.289-1.051-2.107-1.226-0.818-0.174-1.745-0.095-2.781 0.237v0c-1.532 0.491-2.542 1.306-3.029 2.446-0.482 1.131-0.457 2.529 0.077 4.193v0l0.543 1.695 0.137 0.362 0.544 1.695c0.24 0.747 0.565 1.384 0.975 1.91 0.411 0.526 0.921 0.93 1.532 1.213 0.604 0.284 1.306 0.423 2.107 0.416 0.795-0.005 1.694-0.169 2.699-0.492v0c1.156-0.37 2.183-0.869 3.083-1.497 0.902-0.621 1.708-1.337 2.418-2.146v0l0.548 2.65c-0.63 0.756-1.422 1.45-2.377 2.081-0.952 0.638-2.069 1.162-3.349 1.572zM163.56 225.866l0.715 2.233-12.689 4.067-0.715-2.233z" fill="#000000" data-fill-palette-color="accent"></path><path d="M195.578 219.166v0c-1.47 1.128-2.933 1.778-4.39 1.948-1.452 0.167-2.864-0.125-4.238-0.875-1.374-0.75-2.681-1.933-3.922-3.549v0l-3.53-4.598c-1.968-2.563-2.823-5.037-2.566-7.421 0.262-2.388 1.667-4.559 4.215-6.515v0c0.915-0.703 1.801-1.266 2.656-1.69 0.865-0.423 1.677-0.739 2.439-0.949 0.76-0.201 1.45-0.331 2.069-0.391v0l1.987 2.117c-1.046 0.088-2.171 0.328-3.376 0.72-1.209 0.396-2.439 1.074-3.689 2.034v0c-1.889 1.45-2.91 3.032-3.065 4.747-0.16 1.719 0.485 3.523 1.934 5.411v0l3.488 4.544c1.341 1.747 2.783 2.781 4.326 3.101 1.552 0.322 3.144-0.144 4.776-1.397v0c0.832-0.638 1.437-1.328 1.817-2.068 0.37-0.741 0.568-1.492 0.593-2.25 0.025-0.759-0.092-1.484-0.349-2.176v0l-3.686-4.803 1.1 0.589-4.582 3.518-1.615-2.103 6.639-5.096 5.903 7.69-2.492 1.888c0.324 0.757 0.498 1.563 0.522 2.418 0.025 0.845-0.191 1.706-0.65 2.581-0.454 0.881-1.226 1.739-2.314 2.575zM202.969 212.906l-2.464 1.891-2.98-4.11 2.354-1.807z" fill="#000000" data-fill-palette-color="accent"></path><path d="M196.991 191.662l15.561 5.921 1.113-1.39-0.464 1.719-9.42-14.729 2.009-2.509 14.275 22.735-1.966 2.456-4.838-7.664 1.78-0.323-2.208 2.756-17.863-6.448z" fill="#000000" data-fill-palette-color="accent"></path><path d="M225.086 154.814l11.015 4.955-1.274 2.833-10.699-4.813c-0.902-0.406-1.732-0.642-2.491-0.708-0.764-0.069-1.443 0.074-2.037 0.429-0.596 0.361-1.09 0.977-1.483 1.849v0c-0.373 0.83-0.528 1.624-0.464 2.384 0.064 0.759 0.294 1.452 0.691 2.079 0.404 0.63 0.931 1.185 1.583 1.666v0l-2.207-0.472 0.159-0.351c-0.656-0.519-1.197-1.142-1.622-1.869-0.434-0.723-0.673-1.55-0.717-2.481-0.041-0.937 0.19-1.965 0.692-3.083v0c0.574-1.275 1.284-2.188 2.133-2.74 0.854-0.549 1.844-0.787 2.968-0.715 1.125 0.072 2.376 0.418 3.753 1.037zM213.681 175.348l12.819 5.766-1.278 2.842-17.096-7.69 1.278-2.842 4.048 1.973zM220.191 165.455l11.106 4.996-1.27 2.823-10.7-4.812c-0.902-0.406-1.731-0.645-2.487-0.717-0.764-0.069-1.443 0.074-2.037 0.428-0.591 0.349-1.084 0.962-1.478 1.841v0c-0.376 0.836-0.532 1.633-0.469 2.392 0.064 0.759 0.3 1.455 0.71 2.088 0.407 0.639 0.946 1.199 1.619 1.682v0l-2.257-0.386 0.284-0.631c-0.691-0.521-1.255-1.14-1.692-1.857-0.443-0.72-0.687-1.535-0.733-2.445-0.046-0.91 0.17-1.898 0.649-2.962v0c0.709-1.576 1.654-2.593 2.837-3.052 1.189-0.456 2.612-0.438 4.27 0.056v0c0.259 0.051 0.532 0.127 0.82 0.227 0.287 0.1 0.564 0.21 0.828 0.329z" fill="#000000" data-fill-palette-color="accent"></path><path d="M3.654 125.278c0-5.178 4.197-9.375 9.375-9.375 5.178 0 9.375 4.197 9.376 9.375 0 5.178-4.197 9.375-9.376 9.376-5.178 0-9.375-4.197-9.375-9.376z" fill="#000000" data-fill-palette-color="accent"></path><path d="M222.027 125.278c0-5.178 4.197-9.375 9.375-9.375 5.178 0 9.375 4.197 9.375 9.375 0 5.178-4.197 9.375-9.375 9.376-5.178 0-9.375-4.197-9.375-9.376z" fill="#000000" data-fill-palette-color="accent"></path></g><g id="text-1"></g></svg></g></svg></g><g></g></svg></g><defs></defs></svg><rect width="272.6757061850445" height="247.2" fill="none" stroke="none" visibility="hidden"></rect></g></svg></g></svg>